<svg width="16" height="15" viewBox="0 0 16 15" fill="none" xmlns="http://www.w3.org/2000/svg">
<path fill-rule="evenodd" clip-rule="evenodd" d="M15.6046 7.00179C15.6734 7.54976 15.2193 7.99919 14.667 7.99919C14.667 11.8652 11.533 14.9992 7.66699 14.9992C3.801 14.9992 0.666992 11.8652 0.666992 7.99921C0.666992 4.13321 3.801 0.999206 7.66699 0.999206V2.49921C4.62943 2.49921 2.16699 4.96164 2.16699 7.99921C2.16699 11.0368 4.62943 13.4992 7.66699 13.4992C10.7046 13.4992 13.167 11.0368 13.167 7.99921L10.667 7.99919C10.667 7.99919 10.667 7.9992 10.667 7.99919C10.667 9.65605 9.32385 10.9992 7.66699 10.9992C6.01014 10.9992 4.66699 9.65606 4.66699 7.99921C4.66699 6.34235 6.01014 4.99921 7.66699 4.99921L7.66699 0.999206C7.66699 0.446922 8.11642 -0.00724424 8.6644 0.0616127C9.37227 0.150561 10.0666 0.333992 10.7285 0.608157C11.6991 1.01019 12.581 1.59947 13.3238 2.34234C14.0667 3.08521 14.656 3.96712 15.058 4.93773C15.3322 5.59962 15.5156 6.29392 15.6046 7.00179ZM13.9915 6.49919C13.9118 6.16284 13.8051 5.83261 13.6722 5.51175C13.3456 4.72313 12.8668 4.00658 12.2632 3.403C11.6596 2.79942 10.9431 2.32063 10.1544 1.99398C9.83358 1.86107 9.50335 1.75441 9.16699 1.67464V5.28626C9.42041 5.42638 9.65346 5.60159 9.85902 5.80716C10.0646 6.01273 10.2398 6.24578 10.3799 6.49919H13.9915ZM7.66699 9.49921C6.83857 9.49921 6.16699 8.82763 6.16699 7.99921C6.16699 7.17078 6.83857 6.49921 7.66699 6.49921C8.49542 6.49921 9.16699 7.17078 9.16699 7.99921C9.16699 8.82763 8.49542 9.49921 7.66699 9.49921Z" fill="white"/>
</svg>
