<svg width="16" height="15" viewBox="0 0 16 15" fill="none" xmlns="http://www.w3.org/2000/svg">
<path fill-rule="evenodd" clip-rule="evenodd" d="M0.833008 0.75C0.833008 0.335786 1.16879 0 1.58301 0H3.19499C4.06694 0 4.80341 0.641303 4.92705 1.5H14.583C14.7919 1.5 14.9914 1.58713 15.1333 1.74041C15.2752 1.89369 15.3468 2.09923 15.3308 2.30752L14.9728 6.96092C14.8626 8.39366 13.6679 9.5 12.2309 9.5H5.87997L5.97277 10.2796C5.98774 10.4053 6.09438 10.5 6.22102 10.5H12.583C12.9972 10.5 13.333 10.8358 13.333 11.25C13.333 11.6642 12.9972 12 12.583 12H6.22102C5.33454 12 4.58808 11.3371 4.48329 10.4569L3.44324 1.72045C3.42827 1.59469 3.32163 1.5 3.19499 1.5H1.58301C1.16879 1.5 0.833008 1.16421 0.833008 0.75ZM5.7014 8H12.2309C12.8841 8 13.4272 7.49712 13.4773 6.84587L13.7731 3H5.10616L5.7014 8Z" fill="white"/>
<path d="M8.33301 14C8.33301 14.5523 7.88529 15 7.33301 15C6.78072 15 6.33301 14.5523 6.33301 14C6.33301 13.4477 6.78072 13 7.33301 13C7.88529 13 8.33301 13.4477 8.33301 14Z" fill="white"/>
<path fill-rule="evenodd" clip-rule="evenodd" d="M7.33301 13.5C7.05687 13.5 6.83301 13.7239 6.83301 14C6.83301 14.2761 7.05687 14.5 7.33301 14.5C7.60915 14.5 7.83301 14.2761 7.83301 14C7.83301 13.7239 7.60915 13.5 7.33301 13.5ZM7.33301 15C7.88529 15 8.33301 14.5523 8.33301 14C8.33301 13.4477 7.88529 13 7.33301 13C6.78072 13 6.33301 13.4477 6.33301 14C6.33301 14.5523 6.78072 15 7.33301 15Z" fill="white"/>
<path d="M13.333 14C13.333 14.5523 12.8853 15 12.333 15C11.7807 15 11.333 14.5523 11.333 14C11.333 13.4477 11.7807 13 12.333 13C12.8853 13 13.333 13.4477 13.333 14Z" fill="white"/>
<path fill-rule="evenodd" clip-rule="evenodd" d="M12.333 13.5C12.0569 13.5 11.833 13.7239 11.833 14C11.833 14.2761 12.0569 14.5 12.333 14.5C12.6091 14.5 12.833 14.2761 12.833 14C12.833 13.7239 12.6091 13.5 12.333 13.5ZM12.333 15C12.8853 15 13.333 14.5523 13.333 14C13.333 13.4477 12.8853 13 12.333 13C11.7807 13 11.333 13.4477 11.333 14C11.333 14.5523 11.7807 15 12.333 15Z" fill="white"/>
</svg>
